<svg width="123" height="108" viewBox="0 0 123 108" fill="none" xmlns="http://www.w3.org/2000/svg">
<path d="M13.6717 7.41138L56.4688 7.67015M13.6717 7.41138C13.6717 0.295407 2 0.0107609 2 7.67015C2 15.3295 13.6717 14.5274 13.6717 7.41138ZM56.4688 7.67015V2.23613H66.1283V7.67015M56.4688 7.67015V11.8103H66.1283V7.67015M56.4688 7.67015C35.54 7.41138 5.354 29.5356 6.15874 59.1639V60.5871M66.1283 7.67015C94.0338 7.67015 116.573 35.7459 116.573 59.1639V60.4577M66.1283 7.67015L92.5581 7.41138L109.73 7.67015M109.73 7.67015C109.73 0.42479 120.329 0.0366466 120.329 7.67015C120.329 14.5274 109.73 14.398 109.73 7.67015ZM116.573 60.4577H111.743V69.6438H121V60.4577H116.573ZM6.15874 60.5871H10.8546V69.7732H2V60.5871H6.15874ZM61.4329 24.6191H64.2503L84.5084 70.9376L73.5073 94.2263H80.2153V106H42.1139L42.6505 94.2263H49.0902L38.4915 70.9376L57.9448 24.6191H61.4329ZM61.4329 24.6191V56.1882M61.4329 56.1882C70.2875 56.1882 71.2266 69.6438 61.4329 69.7732C52.31 69.6438 51.6392 56.1882 61.4329 56.1882Z" stroke="white" stroke-width="3"/>
</svg>
